<svg width="21" height="20" viewBox="0 0 21 20" fill="none" xmlns="http://www.w3.org/2000/svg">
<mask id="mask0_19_274" style="mask-type:alpha" maskUnits="userSpaceOnUse" x="0" y="0" width="21" height="20">
<rect x="0.875488" width="20" height="20" fill="#D9D9D9"/>
</mask>
<g mask="url(#mask0_19_274)">
<path d="M5.10194 17.6694C4.57718 17.6694 4.13001 17.4846 3.76044 17.115C3.39087 16.7454 3.20609 16.2983 3.20609 15.7735V4.22642C3.20609 3.70166 3.39087 3.25449 3.76044 2.88492C4.13001 2.51535 4.57718 2.33057 5.10194 2.33057H16.649C17.1738 2.33057 17.621 2.51535 17.9905 2.88492C18.3601 3.25449 18.5449 3.70166 18.5449 4.22642V15.7735C18.5449 16.2983 18.3601 16.7454 17.9905 17.115C17.621 17.4846 17.1738 17.6694 16.649 17.6694H5.10194ZM5.10194 15.7735H16.649V4.22642H5.10194V15.7735Z" fill="#828282"/>
</g>
</svg>
