<svg width="29" height="27" viewBox="0 0 29 27" fill="none" xmlns="http://www.w3.org/2000/svg">
<mask id="mask0_49_1374" style="mask-type:alpha" maskUnits="userSpaceOnUse" x="0" y="-1" width="29" height="29">
<rect x="0.5" y="-0.5" width="28" height="28" fill="#D9D9D9"/>
</mask>
<g mask="url(#mask0_49_1374)">
<path d="M12.8458 15.3559L10.5188 13.0289C10.277 12.7871 9.9722 12.6662 9.60445 12.6662C9.23669 12.6662 8.93192 12.7871 8.69013 13.0289C8.44836 13.2707 8.32863 13.5755 8.33094 13.9432C8.33327 14.311 8.45533 14.6158 8.6971 14.8575L11.9105 18.0709C12.1781 18.3368 12.4903 18.4697 12.847 18.4697C13.2038 18.4697 13.5151 18.3368 13.781 18.0709L20.268 11.5839C20.5098 11.3421 20.6307 11.0385 20.6307 10.6731C20.6307 10.3076 20.5098 10.004 20.268 9.76225C20.0262 9.52045 19.7215 9.39956 19.3537 9.39956C18.986 9.39956 18.6812 9.52045 18.4394 9.76225L12.8458 15.3559ZM14.5 25.4038C12.8489 25.4038 11.2997 25.0916 9.85245 24.4671C8.40516 23.8425 7.14622 22.995 6.07563 21.9244C5.00504 20.8538 4.15748 19.5949 3.53297 18.1476C2.90845 16.7003 2.59619 15.1511 2.59619 13.5C2.59619 11.8489 2.90845 10.2997 3.53297 8.85245C4.15748 7.40516 5.00504 6.14622 6.07563 5.07563C7.14622 4.00504 8.40516 3.15748 9.85245 2.53297C11.2997 1.90845 12.8489 1.59619 14.5 1.59619C16.1511 1.59619 17.7003 1.90845 19.1476 2.53297C20.5949 3.15748 21.8538 4.00504 22.9244 5.07563C23.995 6.14622 24.8425 7.40516 25.4671 8.85245C26.0916 10.2997 26.4038 11.8489 26.4038 13.5C26.4038 15.1511 26.0916 16.7003 25.4671 18.1476C24.8425 19.5949 23.995 20.8538 22.9244 21.9244C21.8538 22.995 20.5949 23.8425 19.1476 24.4671C17.7003 25.0916 16.1511 25.4038 14.5 25.4038Z" fill="#5AA466"/>
</g>
</svg>
