<svg width="21" height="20" viewBox="0 0 21 20" fill="none" xmlns="http://www.w3.org/2000/svg">
<mask id="mask0_19_259" style="mask-type:alpha" maskUnits="userSpaceOnUse" x="0" y="0" width="21" height="20">
<rect x="0.624512" width="20" height="20" fill="#D9D9D9"/>
</mask>
<g mask="url(#mask0_19_259)">
<path d="M10.5679 15C10.8729 15 11.1318 14.8935 11.3449 14.6805C11.5579 14.4675 11.6644 14.2083 11.6644 13.9029C11.6644 13.5975 11.5579 13.3393 11.3449 13.1284C11.1318 12.9175 10.8729 12.8121 10.5679 12.8121C10.263 12.8121 10.004 12.9175 9.79096 13.1284C9.57795 13.3393 9.47144 13.5975 9.47144 13.9029C9.47144 14.2083 9.57795 14.4675 9.79096 14.6805C10.004 14.8935 10.263 15 10.5679 15ZM10.6245 18.5028C9.44518 18.5028 8.33862 18.2797 7.30484 17.8336C6.27106 17.3876 5.37182 16.7822 4.60711 16.0175C3.8424 15.2528 3.237 14.3535 2.79092 13.3197C2.34484 12.286 2.1218 11.1794 2.1218 10C2.1218 8.8207 2.34484 7.71413 2.79092 6.68036C3.237 5.64658 3.8424 4.74734 4.60711 3.98263C5.37182 3.21792 6.27106 2.61252 7.30484 2.16644C8.33862 1.72036 9.44518 1.49731 10.6245 1.49731C11.8039 1.49731 12.9104 1.72036 13.9442 2.16644C14.978 2.61252 15.8772 3.21792 16.6419 3.98263C17.4067 4.74734 18.012 5.64658 18.4581 6.68036C18.9042 7.71413 19.1273 8.8207 19.1273 10C19.1273 11.1794 18.9042 12.286 18.4581 13.3197C18.012 14.3535 17.4067 15.2528 16.6419 16.0175C15.8772 16.7822 14.978 17.3876 13.9442 17.8336C12.9104 18.2797 11.8039 18.5028 10.6245 18.5028ZM10.6245 16.6069C12.4723 16.6069 14.0354 15.9677 15.3138 14.6894C16.5922 13.411 17.2314 11.8479 17.2314 10C17.2314 8.15222 16.5922 6.58912 15.3138 5.31073C14.0354 4.03236 12.4723 3.39317 10.6245 3.39317C8.77671 3.39317 7.2136 4.03236 5.93521 5.31073C4.65684 6.58912 4.01765 8.15222 4.01765 10C4.01765 11.8479 4.65684 13.411 5.93521 14.6894C7.2136 15.9677 8.77671 16.6069 10.6245 16.6069ZM10.6929 6.52133C11.0134 6.52133 11.2921 6.62486 11.5293 6.8319C11.7664 7.03893 11.8849 7.29772 11.8849 7.60829C11.8849 7.89724 11.797 8.15479 11.6211 8.38094C11.4453 8.60708 11.2459 8.81768 11.0231 9.01273C10.7036 9.29051 10.4215 9.59772 10.1768 9.93438C9.93211 10.271 9.80975 10.6477 9.80975 11.0644C9.80975 11.2701 9.88721 11.4427 10.0421 11.5823C10.197 11.7219 10.3777 11.7917 10.5843 11.7917C10.8055 11.7917 10.9941 11.7181 11.1499 11.5709C11.3057 11.4237 11.4111 11.241 11.466 11.0227C11.5282 10.7443 11.6507 10.4963 11.8335 10.2788C12.0164 10.0613 12.2139 9.8533 12.4262 9.65494C12.7456 9.3527 13.0166 9.01854 13.2391 8.65244C13.4616 8.28636 13.5729 7.88275 13.5729 7.44163C13.5729 6.72664 13.2872 6.13931 12.7158 5.67963C12.1444 5.21993 11.4784 4.99008 10.7178 4.99008C10.1768 4.99008 9.66416 5.10452 9.18 5.33338C8.69585 5.56224 8.32214 5.90916 8.05886 6.37415C7.955 6.55077 7.92198 6.73943 7.95982 6.94011C7.99765 7.1408 8.0998 7.29318 8.26627 7.39723C8.47069 7.51831 8.68454 7.55553 8.90782 7.50888C9.13109 7.46222 9.31882 7.33836 9.47098 7.13727C9.61712 6.94223 9.79833 6.79081 10.0146 6.68302C10.2309 6.57523 10.457 6.52133 10.6929 6.52133Z" fill="#969698"/>
</g>
</svg>
